<?xml version="1.0" standalone="no"?>
<!DOCTYPE svg PUBLIC "-//W3C//DTD SVG 20010904//EN"
 "http://www.w3.org/TR/2001/REC-SVG-20010904/DTD/svg10.dtd">
<svg version="1.0" xmlns="http://www.w3.org/2000/svg"
 width="500.000000pt" height="500.000000pt" viewBox="0 0 500.000000 500.000000"
 preserveAspectRatio="xMidYMid meet">

<g transform="translate(0.000000,500.000000) scale(0.100000,-0.100000)"
fill="#000000" stroke="none">
<path d="M4317 3814 c5 -13 7 -13 15 -2 6 8 7 1 3 -21 l-7 -34 38 7 c22 4 49
10 62 13 12 3 22 1 22 -5 0 -6 -25 -16 -55 -23 -79 -17 -91 -29 -94 -89 -1
-13 -2 -13 -11 0 -8 13 -10 12 -10 -2 0 -10 5 -18 11 -18 6 0 9 -6 6 -14 -3
-8 0 -16 6 -18 18 -7 58 6 56 17 -2 6 6 11 17 13 10 2 26 5 34 8 13 4 13 6 0
14 -11 7 -8 10 13 10 32 0 71 35 63 57 -3 8 -6 26 -6 39 0 35 -49 62 -116 63
-44 0 -52 -2 -47 -15z"/>
<path d="M4301 3773 c7 -10 15 -20 16 -22 2 -2 3 5 3 17 0 14 -6 22 -16 22
-14 0 -15 -3 -3 -17z"/>
<path d="M4230 3767 c-22 -9 -23 -11 -6 -14 10 -3 23 0 29 6 16 16 5 20 -23 8z"/>
<path d="M4028 3751 c-20 -10 -50 -28 -66 -40 -17 -11 -35 -21 -42 -21 -7 0
-24 -8 -38 -19 -15 -10 -33 -20 -40 -22 -6 -2 -43 -29 -81 -59 -64 -50 -88
-85 -82 -117 1 -7 -4 -13 -11 -13 -9 0 -9 -3 0 -12 9 -9 21 -5 54 19 33 24 44
39 49 67 8 49 22 61 17 14 l-4 -36 41 20 40 21 -30 -30 c-16 -16 -34 -29 -39
-29 -5 1 -10 -5 -12 -12 -1 -7 0 -8 3 -2 2 5 9 8 14 4 8 -5 36 12 126 74 15
11 53 34 83 52 30 17 46 29 35 26 -19 -6 -19 -5 -1 8 10 8 15 19 12 25 -10 15
16 52 29 41 7 -6 11 -3 11 8 1 9 3 24 5 32 6 22 -30 22 -73 1z m-42 -107 c-6
-23 -4 -26 11 -20 12 4 9 -1 -7 -14 -43 -34 -48 -28 -23 25 20 41 28 45 19 9z
m-67 -68 c-2 -2 -15 -9 -29 -15 -24 -11 -24 -11 -6 3 16 13 49 24 35 12z"/>
<path d="M4268 3743 c7 -3 16 -2 19 1 4 3 -2 6 -13 5 -11 0 -14 -3 -6 -6z"/>
<path d="M4202 3662 c0 -9 -3 -25 -7 -36 -6 -14 -4 -17 11 -14 13 3 18 11 17
26 -2 12 2 22 7 22 19 0 10 16 -9 17 -13 1 -19 -5 -19 -15z"/>
<path d="M4243 3661 c-9 -14 -8 -24 6 -45 l17 -26 0 45 c-1 49 -5 54 -23 26z"/>
<path d="M4070 3623 c0 -5 5 -15 10 -23 8 -12 10 -11 10 8 0 12 -4 22 -10 22
-5 0 -10 -3 -10 -7z"/>
<path d="M3998 3583 c-27 -14 -48 -31 -48 -36 0 -5 7 -4 15 3 12 10 16 9 21
-4 3 -9 12 -16 20 -16 8 0 11 6 8 15 -4 8 -2 15 4 15 5 0 17 11 26 25 21 31
13 31 -46 -2z"/>
<path d="M4044 3565 c-10 -26 1 -35 13 -10 6 14 7 25 2 25 -5 0 -12 -7 -15
-15z"/>
<path d="M4190 3550 c0 -5 6 -10 14 -10 8 0 18 5 21 10 3 6 -3 10 -14 10 -12
0 -21 -4 -21 -10z"/>
<path d="M4115 3540 c-19 -8 -19 -9 3 -9 12 -1 22 4 22 9 0 6 -1 10 -2 9 -2 0
-12 -4 -23 -9z"/>
<path d="M4156 3542 c-3 -5 1 -9 9 -9 8 0 12 4 9 9 -3 4 -7 8 -9 8 -2 0 -6 -4
-9 -8z"/>
<path d="M4073 3515 c9 -22 -8 -27 -39 -10 -28 14 -44 12 -44 -6 0 -6 4 -8 9
-5 5 4 12 0 15 -6 5 -10 7 -10 12 0 4 10 9 10 20 2 8 -7 26 -9 44 -5 l32 7
-21 19 c-24 23 -35 24 -28 4z"/>
<path d="M3915 3510 c3 -5 8 -10 11 -10 2 0 4 5 4 10 0 6 -5 10 -11 10 -5 0
-7 -4 -4 -10z"/>
<path d="M3866 3502 c-3 -5 1 -9 9 -9 8 0 15 4 15 9 0 4 -4 8 -9 8 -6 0 -12
-4 -15 -8z"/>
<path d="M3712 3446 c-18 -13 -41 -22 -51 -19 -11 3 -22 -1 -26 -7 -5 -9 -1
-10 16 -5 21 7 22 6 10 -9 -16 -19 -6 -35 11 -18 16 16 28 15 28 -1 0 -7 -15
-19 -32 -26 -24 -10 -28 -15 -16 -18 9 -2 19 -12 21 -21 3 -12 6 -9 11 11 5
15 12 27 16 27 5 0 11 14 15 30 4 17 11 28 16 25 5 -4 6 0 3 8 -3 9 3 17 16
20 12 3 19 10 15 16 -9 15 -15 13 -53 -13z"/>
<path d="M4000 3441 c0 -5 7 -11 14 -14 10 -4 13 -1 9 9 -6 15 -23 19 -23 5z"/>
<path d="M3905 3420 c-3 -5 1 -13 10 -16 22 -9 29 1 11 15 -10 8 -16 9 -21 1z"/>
<path d="M3620 3315 c0 -8 4 -15 10 -15 5 0 7 7 4 15 -4 8 -8 15 -10 15 -2 0
-4 -7 -4 -15z"/>
<path d="M3444 3228 c-53 -59 -67 -78 -56 -78 13 0 102 86 102 100 0 18 -15
11 -46 -22z"/>
<path d="M3323 3030 c-47 -19 -57 -87 -18 -125 49 -50 135 -17 135 51 0 63
-56 98 -117 74z"/>
<path d="M3910 2712 c0 -324 -3 -312 93 -312 l57 0 2 163 3 162 50 0 c68 0 75
-16 75 -176 0 -149 2 -151 87 -147 l58 3 0 165 c0 152 -2 168 -22 200 -36 58
-75 75 -170 75 l-83 0 0 50 c0 76 -18 95 -91 95 l-59 0 0 -278z"/>
<path d="M561 2950 c-74 -16 -71 -5 -71 -270 0 -217 2 -238 18 -253 43 -39
244 -47 323 -14 51 21 104 71 128 120 l21 42 0 -35 c0 -50 31 -101 74 -123 76
-40 243 -32 308 14 l29 21 -3 155 -3 155 -37 33 c-20 19 -56 39 -80 46 -62 17
-194 6 -227 -19 -29 -21 -38 -60 -22 -91 10 -18 14 -18 57 -5 83 25 164 12
172 -28 3 -13 -9 -18 -65 -23 -117 -12 -152 -25 -185 -73 -14 -21 -15 -19 -10
46 9 134 -46 237 -150 282 -60 26 -201 36 -277 20z m209 -139 c78 -55 79 -231
2 -278 -27 -16 -86 -26 -111 -18 -20 6 -21 13 -21 160 0 138 2 154 18 158 28
8 85 -3 112 -22z m478 -268 c-3 -35 -6 -38 -37 -41 -55 -6 -81 5 -81 33 0 31
24 44 78 45 l43 0 -3 -37z"/>
<path d="M2244 2936 c-3 -7 -4 -124 -2 -260 3 -287 1 -279 98 -274 l55 3 3
230 c1 133 7 234 12 239 15 15 12 34 -10 56 -16 16 -33 20 -85 20 -46 0 -67
-4 -71 -14z"/>
<path d="M1424 2916 c-3 -8 -4 -108 -2 -223 3 -179 6 -213 21 -236 27 -41 61
-58 124 -64 72 -6 111 8 126 46 l11 29 27 -28 c63 -62 258 -68 341 -9 l28 20
0 151 0 150 -38 38 c-49 49 -103 64 -206 57 -92 -6 -129 -27 -134 -73 -4 -51
6 -56 85 -42 77 13 128 5 147 -24 5 -9 8 -19 6 -22 -3 -2 -45 -9 -93 -15 -48
-6 -101 -18 -116 -27 -36 -21 -61 -63 -61 -103 0 -30 -1 -31 -48 -31 -26 0
-53 5 -60 12 -7 7 -12 43 -12 90 l0 78 54 0 c64 0 79 13 74 67 l-3 38 -62 3
-63 3 0 48 c0 63 -19 81 -89 81 -35 0 -53 -4 -57 -14z m534 -373 c-3 -35 -6
-38 -37 -41 -73 -7 -108 21 -71 58 14 14 34 20 66 20 l45 0 -3 -37z"/>
<path d="M4370 2701 l0 -229 26 -31 c31 -37 90 -55 157 -48 62 6 89 30 85 76
-3 36 -3 36 -55 39 -66 4 -75 18 -71 110 l3 67 55 5 c61 6 80 26 72 79 -4 29
-6 30 -66 33 l-61 3 -5 53 c-7 63 -17 72 -87 72 l-53 0 0 -229z"/>
<path d="M2565 2841 c-39 -10 -75 -29 -102 -54 -22 -20 -23 -27 -23 -188 0
-198 1 -199 88 -199 71 0 88 10 73 38 -6 12 -11 75 -11 150 0 143 0 142 64
142 52 0 56 -11 56 -155 0 -169 4 -175 101 -175 l70 0 -3 174 c-3 196 -8 211
-81 249 -41 21 -179 32 -232 18z"/>
<path d="M3009 2841 c-68 -22 -109 -72 -109 -133 0 -72 49 -117 149 -138 71
-15 89 -30 66 -54 -21 -20 -67 -20 -135 0 -51 15 -55 15 -67 -2 -18 -25 -16
-47 7 -77 25 -32 75 -47 154 -47 81 0 132 17 166 57 25 28 30 43 30 83 0 80
-43 116 -177 150 -31 8 -43 16 -43 29 0 34 55 41 133 17 55 -17 70 -6 65 45
-5 51 -42 72 -135 75 -43 2 -90 0 -104 -5z"/>
<path d="M3586 2836 c-59 -22 -88 -47 -113 -96 -39 -75 -27 -196 25 -253 38
-43 91 -60 169 -55 80 5 88 -1 55 -42 -25 -31 -109 -38 -172 -16 -42 14 -46
14 -57 -1 -16 -20 -17 -57 -3 -83 13 -24 97 -50 160 -50 103 0 192 50 219 123
6 16 11 106 11 210 0 206 -2 212 -73 249 -54 27 -166 34 -221 14z m152 -191
c3 -89 -6 -105 -63 -105 -50 0 -75 31 -75 92 0 72 27 100 90 96 l45 -3 3 -80z"/>
<path d="M3303 2833 c-10 -3 -13 -55 -13 -208 0 -235 -3 -229 93 -223 l52 3 0
198 c0 197 0 199 -24 218 -22 18 -79 24 -108 12z"/>
<path d="M2540 2212 c0 -4 9 -8 19 -8 11 0 17 4 15 8 -3 4 -12 8 -20 8 -8 0
-14 -4 -14 -8z"/>
<path d="M1193 2178 c-2 -5 3 -8 11 -8 23 0 22 -78 -1 -96 -16 -12 -13 -13 27
-13 40 0 43 1 28 13 -25 18 -25 96 -1 96 9 0 13 3 10 7 -10 9 -68 10 -74 1z"/>
<path d="M1615 2179 c-27 -3 -40 -7 -27 -7 20 -2 22 -7 22 -57 0 -30 5 -55 10
-55 6 0 10 24 10 54 0 52 1 55 28 58 15 2 23 5 17 8 -5 3 -32 3 -60 -1z"/>
<path d="M1803 2183 l-43 -4 0 -60 0 -59 45 0 c25 0 45 5 45 10 0 6 -16 10
-35 10 -24 0 -35 5 -35 15 0 10 10 15 30 15 17 0 30 5 30 10 0 6 -13 10 -30
10 -23 0 -30 4 -30 20 0 16 7 20 35 20 19 0 35 5 35 10 0 6 -1 9 -2 8 -2 -1
-22 -3 -45 -5z"/>
<path d="M2340 2183 c-28 -10 -50 -36 -50 -60 0 -57 92 -87 124 -41 23 32 20
38 -20 38 -22 0 -33 -4 -29 -11 4 -6 13 -8 21 -5 7 3 16 1 19 -4 4 -6 -6 -15
-21 -20 -35 -14 -74 10 -74 45 0 31 32 48 73 40 21 -5 29 -4 22 3 -14 14 -47
21 -65 15z"/>
<path d="M2520 2123 l0 -63 46 0 c27 0 43 4 39 10 -3 6 -22 10 -41 10 -24 0
-34 5 -34 15 0 10 10 15 29 15 17 0 33 5 36 10 4 6 -8 10 -29 10 -29 0 -36 4
-36 19 0 16 8 20 43 23 l42 3 -47 5 -48 5 0 -62z"/>
<path d="M2953 2180 c-23 -9 -43 -39 -43 -64 0 -42 71 -71 110 -46 11 7 5 9
-22 8 -62 -2 -89 40 -49 76 15 13 28 16 53 11 22 -5 30 -4 23 3 -16 16 -48 21
-72 12z"/>
<path d="M3858 2182 l-38 -3 0 -60 0 -59 46 0 c27 0 43 4 39 10 -3 6 -22 10
-41 10 -28 0 -35 3 -32 18 2 10 11 16 22 14 10 -2 25 0 35 4 12 5 7 9 -19 13
-50 8 -47 35 5 41 49 6 34 17 -17 12z"/>
<path d="M1360 2120 c0 -33 4 -60 10 -60 6 0 10 21 10 48 l1 47 44 -47 c24
-27 48 -48 54 -48 7 0 11 23 11 60 0 33 -4 60 -10 60 -5 0 -10 -21 -10 -47
l-1 -48 -42 48 c-56 63 -67 61 -67 -13z"/>
<path d="M1950 2120 l0 -60 45 0 c25 0 45 5 45 10 0 6 -16 10 -35 10 l-35 0 0
50 c0 28 -4 50 -10 50 -6 0 -10 -27 -10 -60z"/>
<path d="M2143 2173 c13 -3 17 -15 17 -45 0 -27 -6 -45 -17 -54 -16 -12 -13
-13 22 -13 35 0 38 1 23 13 -12 9 -18 27 -18 54 0 30 4 42 18 45 9 3 -1 5 -23
5 -22 0 -32 -2 -22 -5z"/>
<path d="M2700 2120 c0 -33 4 -60 10 -60 6 0 10 21 10 48 l1 47 43 -49 c53
-60 68 -55 60 17 -8 68 -14 72 -14 11 l-1 -49 -44 48 c-24 26 -48 47 -54 47
-7 0 -11 -23 -11 -60z"/>
<path d="M3133 2173 c13 -3 17 -15 17 -45 0 -27 -6 -45 -17 -54 -16 -12 -14
-13 20 -14 20 0 37 5 37 10 0 6 -7 10 -15 10 -23 0 -20 76 3 89 13 8 9 10 -23
10 -22 -1 -32 -3 -22 -6z"/>
<path d="M3305 2123 c-14 -31 -23 -59 -19 -62 3 -3 10 2 15 12 13 22 74 24 83
2 3 -8 10 -15 15 -15 5 0 -3 27 -17 60 -15 33 -32 60 -39 60 -8 0 -25 -25 -38
-57z m54 -5 c1 -5 -8 -8 -19 -8 -23 0 -24 4 -8 33 11 21 11 21 19 2 4 -11 8
-23 8 -27z"/>
<path d="M3610 2120 l0 -60 40 0 c67 0 99 49 64 98 -12 17 -25 22 -60 22 l-44
0 0 -60z m81 40 c21 -12 25 -50 7 -68 -7 -7 -27 -12 -45 -12 -32 0 -33 1 -33
45 0 42 2 45 26 45 14 0 34 -5 45 -10z"/>
<path d="M2475 1960 c-3 -6 1 -7 9 -4 18 7 21 14 7 14 -6 0 -13 -4 -16 -10z"/>
<path d="M1797 1934 c-11 -11 -8 -124 3 -124 6 0 10 21 10 48 l1 47 42 -47
c24 -27 46 -48 50 -48 4 0 6 30 5 68 l-1 67 -6 -54 -6 -55 -45 53 c-25 29 -49
49 -53 45z"/>
<path d="M2017 1933 c-4 -3 -7 -33 -7 -65 l0 -58 45 0 c25 0 45 5 45 10 0 6
-16 10 -35 10 -28 0 -35 4 -35 19 0 15 8 21 38 24 l37 4 -37 1 c-31 2 -38 6
-38 22 0 16 7 20 35 20 19 0 35 5 35 10 0 11 -73 14 -83 3z"/>
<path d="M2225 1928 c-26 -15 -35 -28 -35 -55 0 -32 34 -63 70 -63 29 0 70 29
70 50 0 6 -17 9 -37 9 -24 -1 -29 -3 -15 -6 28 -6 29 -29 0 -36 -31 -8 -68 18
-68 47 0 34 24 50 65 43 38 -6 48 7 13 17 -31 8 -40 7 -63 -6z"/>
<path d="M2433 1925 c-29 -20 -31 -75 -5 -98 25 -22 75 -21 95 1 20 22 22 75
4 91 -25 20 -71 23 -94 6z m81 -24 c33 -36 -7 -86 -57 -73 -10 3 -24 15 -29
28 -23 49 49 86 86 45z"/>
<path d="M2662 1930 c-47 -20 -45 -104 4 -116 30 -8 74 3 74 17 0 7 -7 8 -17
4 -60 -26 -109 27 -66 70 12 12 27 15 52 11 33 -5 35 -4 17 9 -22 17 -32 18
-64 5z"/>
<path d="M2835 1930 c-3 -5 1 -10 9 -10 12 0 16 -11 16 -45 0 -33 -4 -45 -15
-45 -8 0 -15 -4 -15 -10 0 -5 16 -10 35 -10 19 0 35 5 35 10 0 6 -7 10 -15 10
-11 0 -15 11 -15 40 0 27 5 43 15 46 8 4 15 10 15 15 0 12 -57 11 -65 -1z"/>
<path d="M3016 1919 c-31 -25 -34 -61 -6 -89 40 -40 120 -12 120 43 0 28 -9
41 -37 56 -31 16 -47 14 -77 -10z m82 -11 c20 -20 14 -56 -13 -74 -23 -15 -27
-15 -50 0 -44 29 -28 86 25 86 14 0 31 -5 38 -12z"/>
<path d="M3236 1927 c-29 -21 -16 -51 27 -61 20 -5 37 -15 37 -22 0 -18 -36
-27 -59 -15 -28 15 -36 14 -21 -4 16 -20 74 -19 91 1 17 21 2 44 -40 58 -43
14 -40 31 4 30 36 -1 47 9 19 20 -24 9 -38 7 -58 -7z"/>
</g>
</svg>
